<svg width="110" height="90" viewBox="0 0 110 90" fill="none" xmlns="http://www.w3.org/2000/svg">
<g clip-path="url(#clip0_4032_8787)">
<rect x="0.5" y="10.5" width="99" height="79" rx="7.5" stroke="#1ED281"/>
<rect x="10" y="21.4971" width="80" height="57.006" rx="1.65269" fill="#EFF3F9"/>
<path d="M22.1864 45.6671H16.1711C16.0134 45.6671 15.8574 45.6363 15.7117 45.5763C15.5661 45.5164 15.4338 45.4284 15.3223 45.3176C15.2109 45.2067 15.1225 45.0751 15.0622 44.9303C15.0019 44.7854 14.9709 44.6301 14.9709 44.4734C14.9709 44.3166 15.0019 44.1614 15.0622 44.0165C15.1225 43.8717 15.2109 43.7401 15.3223 43.6293C15.4337 43.5184 15.566 43.4305 15.7117 43.3706C15.8573 43.3106 16.0133 43.2797 16.1709 43.2798H22.1862C22.3438 43.2798 22.4999 43.3106 22.6455 43.3706C22.7911 43.4306 22.9234 43.5185 23.0348 43.6293C23.1463 43.7402 23.2347 43.8717 23.295 44.0166C23.3553 44.1614 23.3863 44.3166 23.3863 44.4734C23.3863 45.133 22.849 45.6671 22.1864 45.6671ZM22.1864 51.102H16.1711C16.0134 51.102 15.8574 51.0712 15.7117 51.0112C15.5661 50.9513 15.4338 50.8633 15.3223 50.7525C15.2109 50.6416 15.1225 50.51 15.0622 50.3651C15.0019 50.2203 14.9709 50.065 14.9709 49.9082C14.9709 49.7515 15.0019 49.5963 15.0622 49.4514C15.1225 49.3066 15.2109 49.175 15.3223 49.0642C15.4337 48.9533 15.566 48.8654 15.7117 48.8054C15.8573 48.7455 16.0133 48.7146 16.1709 48.7147H22.1862C22.3438 48.7146 22.4999 48.7455 22.6455 48.8055C22.7911 48.8654 22.9234 48.9534 23.0348 49.0642C23.1463 49.175 23.2347 49.3066 23.295 49.4514C23.3553 49.5963 23.3863 49.7515 23.3863 49.9082C23.3863 50.5679 22.849 51.102 22.1864 51.102ZM22.1864 56.5367H16.1711C16.0135 56.5367 15.8574 56.5059 15.7118 56.446C15.5661 56.386 15.4338 56.2981 15.3224 56.1872C15.2109 56.0764 15.1225 55.9448 15.0622 55.8C15.0019 55.6551 14.9709 55.4999 14.9709 55.3431C14.9709 55.1864 15.002 55.0311 15.0622 54.8863C15.1225 54.7415 15.2109 54.6099 15.3224 54.499C15.4338 54.3882 15.5661 54.3003 15.7117 54.2403C15.8573 54.1803 16.0133 54.1494 16.1709 54.1494H22.1862C22.5045 54.1494 22.8097 54.2751 23.0348 54.499C23.2598 54.7229 23.3863 55.0265 23.3863 55.343C23.3863 55.6596 23.2598 55.9632 23.0348 56.1871C22.8097 56.4109 22.5047 56.5367 22.1864 56.5367ZM22.1864 61.9722H16.1711C16.0134 61.9722 15.8573 61.9413 15.7117 61.8813C15.5661 61.8213 15.4337 61.7333 15.3223 61.6224C15.2108 61.5115 15.1225 61.3798 15.0622 61.235C15.0019 61.0901 14.9709 60.9348 14.9709 60.778C14.9709 60.6212 15.002 60.466 15.0622 60.3212C15.1225 60.1764 15.2109 60.0448 15.3224 59.9339C15.4338 59.8231 15.5661 59.7351 15.7117 59.6751C15.8573 59.6151 16.0133 59.5843 16.1709 59.5843H22.1862C22.5022 59.5878 22.804 59.7152 23.0262 59.9387C23.2484 60.1623 23.373 60.4639 23.373 60.7782C23.373 61.0926 23.2484 61.3942 23.0262 61.6177C22.804 61.8412 22.5024 61.9686 22.1864 61.9722ZM22.1864 67.4071H16.1711C16.0134 67.4071 15.8573 67.3762 15.7117 67.3162C15.5661 67.2561 15.4337 67.1682 15.3223 67.0573C15.2108 66.9464 15.1225 66.8147 15.0622 66.6698C15.0019 66.525 14.9709 66.3697 14.9709 66.2129C14.9709 66.0561 15.002 65.9009 15.0622 65.7561C15.1225 65.6112 15.2109 65.4796 15.3224 65.3688C15.4338 65.2579 15.5661 65.17 15.7117 65.11C15.8573 65.05 16.0133 65.0191 16.1709 65.0191H22.1862C22.5022 65.0227 22.804 65.1501 23.0262 65.3736C23.2484 65.5971 23.373 65.8988 23.373 66.2131C23.373 66.5274 23.2484 66.8291 23.0262 67.0526C22.804 67.2761 22.5024 67.4035 22.1864 67.4071ZM44.4909 45.6671H27.4846C27.327 45.6671 27.171 45.6362 27.0254 45.5762C26.8798 45.5162 26.7475 45.4283 26.6361 45.3174C26.5246 45.2066 26.4363 45.075 26.376 44.9302C26.3157 44.7853 26.2846 44.6301 26.2847 44.4734C26.2847 43.8137 26.8221 43.2798 27.4846 43.2798H44.4909C44.6485 43.2798 44.8046 43.3106 44.9502 43.3706C45.0958 43.4306 45.2281 43.5185 45.3395 43.6293C45.451 43.7402 45.5394 43.8717 45.5997 44.0166C45.66 44.1614 45.691 44.3166 45.691 44.4734C45.691 45.133 45.1535 45.6671 44.4909 45.6671ZM44.4909 51.102H27.4846C27.327 51.102 27.171 51.0711 27.0254 51.0111C26.8798 50.9511 26.7475 50.8632 26.6361 50.7523C26.5246 50.6415 26.4363 50.5099 26.376 50.365C26.3157 50.2202 26.2846 50.065 26.2847 49.9082C26.2847 49.2486 26.8221 48.7147 27.4846 48.7147H44.4909C44.6485 48.7146 44.8046 48.7455 44.9502 48.8055C45.0958 48.8654 45.2281 48.9534 45.3395 49.0642C45.451 49.175 45.5394 49.3066 45.5997 49.4514C45.66 49.5963 45.691 49.7515 45.691 49.9082C45.691 50.5679 45.1535 51.102 44.4909 51.102ZM44.4909 56.5367H27.4846C27.1664 56.5367 26.8611 56.4109 26.6361 56.1871C26.411 55.9632 26.2846 55.6596 26.2846 55.343C26.2846 55.0265 26.411 54.7229 26.6361 54.499C26.8611 54.2751 27.1664 54.1494 27.4846 54.1494H44.4909C44.8092 54.1494 45.1144 54.2751 45.3395 54.499C45.5645 54.7229 45.691 55.0265 45.691 55.343C45.691 55.6596 45.5645 55.9632 45.3395 56.1871C45.1144 56.4109 44.8092 56.5367 44.4909 56.5367ZM44.4909 61.9722H27.4846C27.1704 61.966 26.8711 61.8375 26.651 61.6143C26.431 61.391 26.3077 61.0909 26.3077 60.7782C26.3077 60.4656 26.431 60.1654 26.651 59.9422C26.8711 59.7189 27.1704 59.5904 27.4846 59.5843H44.4909C44.8069 59.5878 45.1087 59.7152 45.3309 59.9387C45.5531 60.1623 45.6777 60.4639 45.6777 60.7782C45.6777 61.0926 45.5531 61.3942 45.3309 61.6177C45.1087 61.8412 44.8069 61.9686 44.4909 61.9722ZM44.4909 67.4071H27.4846C27.1704 67.4009 26.8711 67.2724 26.651 67.0492C26.431 66.8259 26.3077 66.5258 26.3077 66.2131C26.3077 65.9005 26.431 65.6003 26.651 65.377C26.8711 65.1538 27.1704 65.0253 27.4846 65.0191H44.4909C44.8069 65.0227 45.1087 65.1501 45.3309 65.3736C45.5531 65.5971 45.6777 65.8988 45.6777 66.2131C45.6777 66.5274 45.5531 66.8291 45.3309 67.0526C45.1087 67.2761 44.8069 67.4035 44.4909 67.4071Z" fill="#CFE0F3"/>
<g clip-path="url(#clip1_4032_8787)">
<rect x="52.1558" y="31.0781" width="31.6168" height="37.8443" rx="1.65369" fill="#CFE0F3"/>
<path d="M67.6966 56.749C60.0921 56.749 53.9275 62.0614 53.9275 68.6141V74.2346H81.4657V68.6141C81.4657 62.0614 75.3011 56.749 67.6966 56.749Z" fill="#061B3B"/>
<path d="M67.6959 56.0204C65.5837 56.0142 63.5597 55.1678 62.066 53.6662C60.5724 52.1646 59.7306 50.1298 59.7244 48.0062V44.3633C59.7244 42.2378 60.5642 40.1994 62.0592 38.6964C63.5541 37.1935 65.5817 36.3491 67.6959 36.3491C69.8082 36.3554 71.8322 37.2017 73.3258 38.7033C74.8194 40.2049 75.6613 42.2398 75.6675 44.3633V48.0062C75.6613 50.1298 74.8194 52.1646 73.3258 53.6662C71.8322 55.1678 69.8082 56.0142 67.6959 56.0204Z" fill="#061B3B"/>
</g>
<path fill-rule="evenodd" clip-rule="evenodd" d="M16.4095 31.0781C15.6158 31.0781 14.9724 31.7215 14.9724 32.5153V36.7883C14.9724 37.582 15.6158 38.2254 16.4095 38.2254H24.0742C24.8679 38.2254 25.5113 37.582 25.5113 36.7883L25.5113 34.89H22.6253C22.5051 36.0939 21.4839 37.0342 20.2419 37.0342C18.9999 37.0342 17.9787 36.0939 17.8585 34.89H14.9724V34.4135H17.8585C17.9787 33.2096 18.9999 32.2693 20.2419 32.2693C21.4839 32.2693 22.5051 33.2096 22.6253 34.4135H25.5113L25.5113 32.5153C25.5113 31.7215 24.8679 31.0781 24.0742 31.0781H16.4095ZM20.2419 36.3194C21.1679 36.3194 21.9185 35.5728 21.9185 34.6517C21.9185 33.7307 21.1679 32.984 20.2419 32.984C19.3159 32.984 18.5652 33.7307 18.5652 34.6517C18.5652 35.5728 19.3159 36.3194 20.2419 36.3194Z" fill="#061B3B"/>
<path d="M100 20.5C96.4062 20.5 93.125 18.625 91.3281 15.5C89.5312 12.4141 89.5312 8.625 91.3281 5.5C93.125 2.41406 96.4062 0.5 100 0.5C103.555 0.5 106.836 2.41406 108.633 5.5C110.43 8.625 110.43 12.4141 108.633 15.5C106.836 18.625 103.555 20.5 100 20.5Z" fill="white"/>
<path d="M100 20.5C96.4062 20.5 93.125 18.625 91.3281 15.5C89.5312 12.4141 89.5312 8.625 91.3281 5.5C93.125 2.41406 96.4062 0.5 100 0.5C103.555 0.5 106.836 2.41406 108.633 5.5C110.43 8.625 110.43 12.4141 108.633 15.5C106.836 18.625 103.555 20.5 100 20.5ZM104.414 8.66406H104.375C104.766 8.3125 104.766 7.72656 104.375 7.33594C104.023 6.98438 103.438 6.98438 103.086 7.33594L98.75 11.7109L96.9141 9.875C96.5234 9.48438 95.9375 9.48438 95.5859 9.875C95.1953 10.2266 95.1953 10.8125 95.5859 11.1641L98.0859 13.6641C98.4375 14.0547 99.0234 14.0547 99.4141 13.6641L104.414 8.66406Z" fill="#1ED281"/>
<path d="M11.2334 17.0522H8.87399C7.29603 17.0522 6.01685 18.3314 6.01685 19.9094V22.2687M11.2334 82.9474H8.87399C7.29603 82.9474 6.01685 81.6682 6.01685 80.0902V77.731M88.7667 82.9474H91.126C92.7039 82.9474 93.9831 81.6682 93.9831 80.0902V77.731M88.7667 17.0522H91.126C92.7039 17.0522 93.9831 18.3314 93.9831 19.9094V22.2687" stroke="#1ED281" stroke-width="1.31508" stroke-linecap="round" stroke-linejoin="round"/>
</g>
<defs>
<clipPath id="clip0_4032_8787">
<rect width="110" height="90" fill="white"/>
</clipPath>
<clipPath id="clip1_4032_8787">
<rect x="52.1558" y="31.0781" width="31.6168" height="37.8443" rx="1.65369" fill="white"/>
</clipPath>
</defs>
</svg>
